<?xml version="1.0" encoding="UTF-8"?>
<svg id="katman_2" xmlns="http://www.w3.org/2000/svg" xmlns:xlink="http://www.w3.org/1999/xlink" viewBox="0 0 576.41 644">
  <defs>
    <style>
      .cls-1, .cls-2 {
        fill: #3d4241;
      }

      .cls-3 {
        fill: #54585d;
      }

      .cls-4 {
        filter: url(#drop-shadow-2);
      }

      .cls-5 {
        filter: url(#drop-shadow-6);
      }

      .cls-6, .cls-7, .cls-8 {
        fill: #fff;
      }

      .cls-9 {
        fill: #8c8883;
      }

      .cls-7, .cls-2, .cls-10, .cls-11 {
        fill-rule: evenodd;
      }

      .cls-12 {
        filter: url(#drop-shadow-4);
      }

      .cls-13 {
        filter: url(#drop-shadow-7);
      }

      .cls-8 {
        stroke: #be1622;
        stroke-miterlimit: 10;
        stroke-width: 3px;
      }

      .cls-14 {
        fill: #333331;
      }

      .cls-15 {
        filter: url(#drop-shadow-1);
      }

      .cls-16 {
        fill: #30302e;
        filter: url(#drop-shadow-5);
      }

      .cls-10, .cls-17 {
        fill: #687073;
      }

      .cls-11, .cls-18 {
        fill: #2f3031;
      }

      .cls-19 {
        fill: #847a7b;
      }

      .cls-20 {
        filter: url(#drop-shadow-3);
      }
    </style>
    <filter id="drop-shadow-1" filterUnits="userSpaceOnUse">
      <feOffset dx="7" dy="7"/>
      <feGaussianBlur result="blur" stdDeviation="5"/>
      <feFlood flood-color="#1d1d1b" flood-opacity=".4"/>
      <feComposite in2="blur" operator="in"/>
      <feComposite in="SourceGraphic"/>
    </filter>
    <filter id="drop-shadow-2" filterUnits="userSpaceOnUse">
      <feOffset dx="7" dy="7"/>
      <feGaussianBlur result="blur-2" stdDeviation="5"/>
      <feFlood flood-color="#1d1d1b" flood-opacity=".4"/>
      <feComposite in2="blur-2" operator="in"/>
      <feComposite in="SourceGraphic"/>
    </filter>
    <filter id="drop-shadow-3" filterUnits="userSpaceOnUse">
      <feOffset dx="7" dy="7"/>
      <feGaussianBlur result="blur-3" stdDeviation="5"/>
      <feFlood flood-color="#1d1d1b" flood-opacity=".4"/>
      <feComposite in2="blur-3" operator="in"/>
      <feComposite in="SourceGraphic"/>
    </filter>
    <filter id="drop-shadow-4" filterUnits="userSpaceOnUse">
      <feOffset dx="7" dy="7"/>
      <feGaussianBlur result="blur-4" stdDeviation="5"/>
      <feFlood flood-color="#1d1d1b" flood-opacity=".4"/>
      <feComposite in2="blur-4" operator="in"/>
      <feComposite in="SourceGraphic"/>
    </filter>
    <filter id="drop-shadow-5" filterUnits="userSpaceOnUse">
      <feOffset dx="7" dy="7"/>
      <feGaussianBlur result="blur-5" stdDeviation="5"/>
      <feFlood flood-color="#1d1d1b" flood-opacity=".2"/>
      <feComposite in2="blur-5" operator="in"/>
      <feComposite in="SourceGraphic"/>
    </filter>
    <filter id="drop-shadow-6" filterUnits="userSpaceOnUse">
      <feOffset dx="7" dy="7"/>
      <feGaussianBlur result="blur-6" stdDeviation="5"/>
      <feFlood flood-color="#1d1d1b" flood-opacity=".4"/>
      <feComposite in2="blur-6" operator="in"/>
      <feComposite in="SourceGraphic"/>
    </filter>
    <filter id="drop-shadow-7" filterUnits="userSpaceOnUse">
      <feOffset dx="7" dy="7"/>
      <feGaussianBlur result="blur-7" stdDeviation="5"/>
      <feFlood flood-color="#1d1d1b" flood-opacity=".4"/>
      <feComposite in2="blur-7" operator="in"/>
      <feComposite in="SourceGraphic"/>
    </filter>
  </defs>
  <g id="katman_1">
    <g>
      <rect class="cls-8" x="1.5" y="1.5" width="573.41" height="641" rx="13.73" ry="13.73"/>
      <g class="cls-15">
        <g id="Layer_2">
          <g id="Layer_1-2">
            <path class="cls-17" d="M436.08,292.84c0,9.03,7.32,16.36,16.36,16.36s16.36-7.32,16.36-16.36-7.32-16.36-16.36-16.36h0c-9.03,0-16.36,7.32-16.36,16.36M405.39,292.84c0-25.99,21.07-47.05,47.05-47.05,25.99,0,47.05,21.07,47.05,47.05,0,25.99-21.07,47.05-47.05,47.05h0c-25.98,0-47.05-21.06-47.05-47.04h0Z"/>
            <path class="cls-17" d="M550.31,337.85h-29.54v-58.76h-17.47v-19.97c10.61-.52,18.72-4.44,20.44-11.77h26.57v90.52"/>
            <path class="cls-17" d="M393.56,337.85h-29.54v-58.76h-17.47v-19.97c10.61-.52,18.71-4.44,20.44-11.77h26.57v90.52"/>
            <path class="cls-10" d="M298.87,337.93l-6.64-18.83h-26.76l-6.64,18.83h-24.45l34.61-90.41h20.46l34.35,90.4h-24.93M280.31,285.77l-1.47-4.15-1.47,4.15-4.81,14.08h12.89l-5.15-14.08Z"/>
            <path class="cls-17" d="M321.07,302.71c0,9.03,7.32,16.36,16.36,16.36s16.36-7.32,16.36-16.36-7.32-16.36-16.36-16.36h0c-9.03,0-16.36,7.32-16.36,16.36"/>
          </g>
        </g>
      </g>
      <g class="cls-4">
        <g id="layer1">
          <g id="g680">
            <path id="path380" class="cls-19" d="M278.17,36.28h85.03l16.77,24.86,17.02-24.86h109.53c24.19,0,43.79,19.61,43.79,43.79v62.43c0,24.19-19.61,43.79-43.79,43.79h-228.35c-24.19,0-43.79-19.61-43.79-43.79v-62.43c0-24.19,19.61-43.79,43.79-43.79"/>
            <path id="path382" class="cls-6" d="M518.34,156.95l-7.24-90.4h-27l-16.76,42.46-16.9-42.46h-26.2l-9.78,90.4h26.54l4.5-51.32,21.68,51.16,23.32-51.32,1.9,51.48h25.94ZM392.87,157.27v-90.4h-27.5v90.4h27.5ZM331.95,112.85c6.51-5.5,10.81-12.72,10.42-20.78-.51-11.15-6.51-19.81-17.02-23.79-5.79-2.27-15.76-3.31-26.47-3.2-12.38.11-14.07-.1-29.34,1.96v90c8.75,1.91,16.1,1.93,31.2,2.28,28.03.64,43.59-9.62,43.92-26.2.18-9.38-5.34-15.92-12.72-20.28M316.67,95.24c0,5.29-4.28,9.57-9.57,9.57h-10.65v-19.12h10.65c5.66,0,9.57,4.28,9.57,9.55M319.39,130.43c-.07,5.74-7.27,8.01-12.67,7.7h-10.26v-15.75h10.65c5.39-.34,11.97,1.56,12.29,8.04"/>
          </g>
        </g>
      </g>
      <g class="cls-20">
        <g id="Layer_2-2" data-name="Layer_2">
          <g id="Layer_1-2-2" data-name="Layer_1-2">
            <path class="cls-3" d="M54.37,321.21l6.83,1.79-17.96,29.19-6.83-2.94,9.24-24.36c-5.5,2.11-11.33,3.25-17.22,3.36l-2.63-14.7c7.65-.09,15.13-2.27,21.63-6.3,0,0,4.83-5.04,1.16-8.4-3.07-2.95-6.62-5.37-10.5-7.14-6.83-3.89-15.86-10.4-15.86-19.11.83-6.69,4.71-12.62,10.5-16.07,9.64-6.04,20.32-10.21,31.5-12.29l1.26,14.7s-21.74,1.58-22.26,9.56c.36,3.22,2.28,6.05,5.15,7.56,5.15,3.26,18.48,8.3,21,14.91,0,0,7.46,15.96-15.96,29.93"/>
            <polygon class="cls-19" points="144.27 252.95 165.17 224.91 141.64 242.65 144.27 252.95"/>
            <polygon class="cls-19" points="108.14 244.96 73.38 211.04 86.3 233.73 108.14 244.96"/>
            <polygon class="cls-19" points="66.45 321.31 80.42 299.57 60.57 273.11 84.83 263.97 67.4 224.17 111.71 251.68 138.07 237.19 142.27 262.92 186.9 262.19 150.88 294.01 157.71 329.19 123.16 320.79 110.77 346.83 93.65 314.27 66.45 321.31"/>
            <polygon class="cls-19" points="57.94 342.1 91.03 318.05 95.86 326.25 57.94 342.1"/>
            <polygon class="cls-19" points="125.26 324.36 141.33 328.03 151.09 349.77 125.26 324.36"/>
            <path class="cls-6" d="M113.29,257.04c14.87-2.5,28.95,7.52,31.46,22.39.02.1.03.19.05.29.26,2.2.26,4.42,0,6.62-1,16.27-15.01,28.64-31.27,27.63-.08,0-.16,0-.23-.02h-1.05s-27.62,0-27.62-25.62c-.37-16.58,12.43-30.49,28.98-31.5"/>
            <path class="cls-19" d="M114.02,271.43s12.08-.74,11.55,14.49c0,0-1.16,13.13-12.18,12.81-6.46-.66-11.16-6.44-10.5-12.9,0,0,0-.01,0-.02h0s0-13.34,11.45-14.18"/>
            <polygon class="cls-3" points="168.21 329.5 187.85 325.72 180.18 286.55 222.51 319.84 234.37 304.19 200.03 279.93 221.35 248.74 205.7 238.87 179.34 281.93 172.31 244.65 152.46 248.32 168.21 329.5"/>
          </g>
        </g>
      </g>
      <g class="cls-12">
        <path class="cls-14" d="M50.35,595.03h-15.14v18.51h-8.84v-44.52h8.84v18h15.14v-18h8.84v44.52h-8.84v-18.51Z"/>
        <path class="cls-14" d="M67.52,569.02h23.72v7.95h-14.88v10.24h13.16v7.57h-13.16v10.81h14.88v7.95h-23.72v-44.52Z"/>
        <path class="cls-14" d="M97.41,569.02h12.78c9.79,0,16.34,5.28,16.34,15.52s-6.55,15.65-16.34,15.65h-3.94v13.36h-8.84v-44.52ZM109.3,592.61c5.41,0,8.2-3.24,8.2-8.08s-2.8-7.95-8.2-7.95h-3.05v16.03h3.05Z"/>
        <path class="cls-14" d="M136.77,555.66c3.12,0,5.41,2.23,5.41,5.28s-2.29,5.21-5.41,5.21-5.34-2.29-5.34-5.21,2.29-5.28,5.34-5.28ZM132.45,569.02h8.84v44.52h-8.84v-44.52Z"/>
        <path class="cls-14" d="M149.68,569.02h14.18l8.65,31.04,8.59-31.04h13.8v44.52h-8.59v-36.89l-10.24,36.89h-7.44l-10.37-36.7v36.7h-8.59v-44.52Z"/>
        <path class="cls-14" d="M207.68,555.66c3.12,0,5.41,2.23,5.41,5.28s-2.29,5.21-5.41,5.21-5.34-2.29-5.34-5.21,2.29-5.28,5.34-5.28ZM203.36,569.02h8.84v44.52h-8.84v-44.52Z"/>
        <path class="cls-14" d="M218.05,606.8l15.2-29.83h-14.37v-7.95h24.68v6.68l-15.2,29.89h15.96v7.95h-26.27v-6.74Z"/>
        <path class="cls-14" d="M254.42,555.66c3.12,0,5.41,2.23,5.41,5.28s-2.29,5.21-5.41,5.21-5.34-2.29-5.34-5.21,2.29-5.28,5.34-5.28ZM250.1,569.02h8.84v44.52h-8.84v-44.52Z"/>
        <path class="cls-14" d="M276.11,584.92v28.62h-8.65v-44.52h7.95l15.71,27.73v-27.73h8.65v44.52h-7.76l-15.9-28.62Z"/>
        <path class="cls-14" d="M322.85,591.47c0-13.48,7.89-23.09,22.45-23.09,12.08,0,18.89,6.49,18.95,15.65h-8.97c-.19-4.45-3.75-7.63-10.24-7.63-9.09,0-13.17,6.3-13.17,14.88,0,9.92,5.72,14.88,14.88,14.88,2.99,0,6.04-.57,8.78-1.46v-8.33h-12.4v-6.93h21.05v20.54c-4.26,2.23-10.62,4.2-17.74,4.2-13.42,0-23.6-7.57-23.6-22.7Z"/>
        <path class="cls-14" d="M369.59,591.21c0-13.23,9.35-22.9,22.77-22.9s22.7,9.73,22.7,22.9-9.35,22.96-22.7,22.96-22.77-9.73-22.77-22.96ZM392.3,605.91c8.14,0,13.74-5.85,13.74-14.69s-5.6-14.63-13.74-14.63-13.67,5.85-13.67,14.63,5.6,14.69,13.67,14.69ZM385.11,556.36c2.61,0,4.71,1.97,4.71,4.58s-2.04,4.52-4.71,4.52-4.71-1.97-4.71-4.52,2.1-4.58,4.71-4.58ZM399.49,556.36c2.67,0,4.71,1.97,4.71,4.58s-2.1,4.52-4.71,4.52-4.71-1.97-4.71-4.52,2.1-4.58,4.71-4.58Z"/>
        <path class="cls-14" d="M421.42,569.02h13.48c9.6,0,15.65,5.41,15.65,13.55,0,5.34-2.54,9.6-6.93,11.89l7.44,19.08h-9.6l-6.42-17.11h-4.77v17.11h-8.84v-44.52ZM434.33,589.24c4.58,0,7.19-2.29,7.19-6.36s-2.42-6.3-7.19-6.3h-4.07v12.66h4.07Z"/>
        <path class="cls-14" d="M457.67,569.02h23.72v7.95h-14.88v10.24h13.17v7.57h-13.17v10.81h14.88v7.95h-23.72v-44.52Z"/>
        <path class="cls-14" d="M485.02,569.02h9.54l8.2,34.85,7.95-34.85h9.54l-11.58,44.52h-12.15l-11.51-44.52Z"/>
        <path class="cls-14" d="M530.11,555.66c3.12,0,5.41,2.23,5.41,5.28s-2.29,5.21-5.41,5.21-5.34-2.29-5.34-5.21,2.29-5.28,5.34-5.28ZM525.78,569.02h8.84v44.52h-8.84v-44.52Z"/>
        <path class="cls-14" d="M551.92,569.02l-1.78,29h-7.31l-1.78-29h10.88ZM541.3,608.83c0-3.05,2.16-5.22,5.21-5.22s5.15,2.16,5.15,5.22-2.16,5.15-5.15,5.15-5.21-2.16-5.21-5.15Z"/>
      </g>
      <rect class="cls-16" x="29.02" y="372.09" width="523.68" height="15.23" rx="2.29" ry="2.29"/>
      <g class="cls-5">
        <g>
          <path class="cls-2" d="M27.9,124.25l25.14-.03c6.5,30.15,33.32,52.75,65.42,52.75s58.9-22.58,65.41-52.72h25.75c-6.56,44.3-44.72,78.29-90.84,78.29-46.13,0-84.31-33.99-90.87-78.29"/>
          <path class="cls-11" d="M26.91,110.68c0-50.74,41.13-91.86,91.87-91.86s91.87,41.13,91.87,91.86c0,3.03-.15,6.04-.43,9h-1.74c.29-2.96.44-5.96.44-9,0-49.78-40.35-90.13-90.13-90.13S28.65,60.9,28.65,110.68c0,3.04.15,6.04.44,9h-1.74c-.29-2.96-.44-5.96-.44-9"/>
          <path class="cls-9" d="M54.72,110.43c0-29.4,19.96-54.14,47.08-61.4-16.16,6.52-27.56,22.36-27.56,40.85,0,24.32,19.71,44.04,44.04,44.04s44.04-19.71,44.04-44.04c0-18.49-11.4-34.33-27.56-40.85,27.11,7.26,47.08,31.99,47.08,61.4,0,35.1-28.45,63.55-63.55,63.55s-63.55-28.45-63.55-63.55"/>
          <polygon class="cls-18" points="124.3 47.25 120.18 47.25 118.91 51.2 117.63 47.25 113.52 47.25 116.85 44.81 115.58 40.87 118.91 43.31 122.24 40.87 120.97 44.81 124.3 47.25"/>
          <path class="cls-9" d="M120.4,123.94v-30.75c.18-2.91,1.81-5.42,4.17-6.83l8.02-4.73v-33.18l.61.2v41.72c-.25,2.38-1.56,4.44-3.44,5.71l-8.76,5.06v22.8h-.61ZM110.17,61.9v-14.75l.38-.07v14.22l4.93,2.9c1.45.86,2.45,2.41,2.56,4.19v5.1l-5.75-3.33c-1.16-.78-1.96-2.04-2.11-3.5v-4.76h0ZM127.33,61.3v-14.17l.38.07v19.46c-.16,1.46-.96,2.72-2.11,3.5l-5.75,3.33v-5.1c.11-1.78,1.11-3.33,2.56-4.19l4.93-2.91ZM130.06,70.2v-22.47l.5.13v29.46c-.2,1.94-1.27,3.61-2.8,4.65l-7.63,4.41v-6.76c.15-2.37,1.47-4.41,3.4-5.56l6.53-3.85ZM107.31,71v-23.21l.5-.12v22.53l6.53,3.85c1.93,1.15,3.25,3.19,3.4,5.56v6.76l-7.63-4.41c-1.53-1.03-2.6-2.71-2.8-4.65v-6.31ZM104.66,82.61v-34.05l.61-.19v33.25l8.02,4.73c2.36,1.41,3.99,3.92,4.17,6.83v30.75h-.61v-22.8l-8.76-5.06c-1.88-1.27-3.19-3.33-3.44-5.71v-7.75h0Z"/>
          <path class="cls-1" d="M141.02,102.03c0,2.85-2.31,5.16-5.16,5.16s-5.16-2.31-5.16-5.16,2.31-5.16,5.16-5.16,5.16,2.31,5.16,5.16M103.28,157.45l.05-21.12s0-1.83-1.33-1.83-1.33,2.05-1.33,2.05l.12,20.9c0,1.58-1.28,2.86-2.86,2.86s-2.82-1.24-2.87-2.78v-39.56s.02-.55-.64-.55c-.55,0-.69.89-.69.89,0,0-2.13,9.67-2.37,10-.39.51-.97.82-1.62.82-1.1,0-2-.9-2-2,0-.54,3.94-14.98,3.94-14.98.02-.48.13-.92.33-1.33.55-1.15,1.72-1.94,3.08-1.94h13.64c1.28,0,2.4.71,2.99,1.76.19.34,4.65,7.31,7.2,11.3,2.56-3.99,7.01-10.96,7.2-11.3.58-1.05,1.7-1.76,2.99-1.76h13.64c1.36,0,2.53.79,3.08,1.94.19.4,6.39,15.17,6.39,15.71,0,1.1-.9,2-2,2-.65,0-1.23-.31-1.62-.82-.24-.33-4.63-10.28-5.18-10.28-.66,0-.64.55-.64.55l5.52,22.5h-5.52v17.07c-.04,1.54-1.32,2.78-2.87,2.78s-2.86-1.28-2.86-2.86l.11-16.99h-2.66l.05,16.99c0,1.58-1.28,2.86-2.86,2.86-1.47,0-2.69-1.12-2.91-2.55l.07-17.29h-5.68s5.54-22,5.5-22.27c-.33-2.11-1.78-1.11-1.78-1.11,0,0-6.16,9.51-6.46,9.84-.37.4-.89.65-1.47.65h-.13c-.58,0-1.11-.25-1.47-.65-.31-.33-6.46-9.84-6.46-9.84,0,0-1.44-1-1.78,1.11s-.11,39.56-.11,39.56c-.22,1.44-1.43,2.55-2.91,2.55-1.58-.01-2.86-1.29-2.86-2.87M96.83,102.03c0-2.85,2.31-5.16,5.16-5.16s5.16,2.31,5.16,5.16-2.31,5.16-5.16,5.16c-2.85,0-5.16-2.31-5.16-5.16"/>
          <polygon class="cls-11" points="46.54 115.32 38.66 115.6 38.75 118.27 37.15 118.32 36.9 111.17 38.5 111.12 38.6 113.77 46.48 113.5 46.54 115.32"/>
          <path class="cls-11" d="M36.22,105.25l-1.56-.08.08-1.48,1.56.08-.08,1.48ZM36.08,107.9l-1.56-.08.08-1.48,1.56.08-.08,1.48ZM36.86,109.53l.1-1.82,5.14.27c.82.04,1.34.05,1.59.02.39-.06.71-.22.96-.5.25-.28.39-.67.41-1.17.03-.51-.07-.9-.27-1.17-.21-.27-.47-.44-.8-.51-.32-.07-.86-.12-1.61-.17l-5.25-.28.1-1.82,4.98.26c1.14.06,1.94.15,2.41.27.47.12.85.32,1.16.6s.55.65.72,1.1c.17.45.23,1.03.2,1.74-.04.86-.18,1.5-.42,1.93s-.52.77-.87,1.01c-.35.24-.71.39-1.08.45-.55.09-1.36.11-2.42.05l-5.06-.27Z"/>
          <path class="cls-11" d="M41.9,98.68l.26-1.32c.17-.86.23-1.4.2-1.63s-.13-.42-.3-.58c-.16-.16-.39-.26-.66-.32-.31-.06-.58-.03-.81.09s-.39.32-.5.6c-.05.14-.14.57-.29,1.3l-.27,1.4,2.37.46ZM46.93,101.52l-9.32-1.81.73-3.76c.18-.95.4-1.62.65-2.02s.62-.68,1.09-.86c.48-.18.99-.21,1.54-.1.7.13,1.24.44,1.62.92.38.48.55,1.12.52,1.91.31-.34.63-.61.97-.8.33-.2.9-.43,1.71-.72l2.03-.73-.41,2.14-2.28.89c-.81.32-1.33.55-1.55.68-.22.13-.39.29-.49.47s-.2.47-.28.88l-.07.37,3.89.76-.35,1.79Z"/>
          <polygon class="cls-11" points="48.52 93.05 39.49 90.12 40.05 88.38 44.05 89.68 41.19 84.88 41.95 82.55 44.41 86.93 51.03 85.31 50.3 87.56 45.3 88.54 46.35 90.42 49.08 91.31 48.52 93.05"/>
          <path class="cls-11" d="M41.74,80.84l-1.6-.64.64-1.58,1.6.64-.64,1.58ZM51.32,84.78l-8.8-3.55.69-1.69,8.8,3.55-.68,1.69Z"/>
          <polygon class="cls-11" points="53.55 79.67 49.96 77.92 43.57 78.48 44.51 76.57 48.82 76.3 46.35 72.78 47.27 70.9 50.77 76.29 54.36 78.03 53.55 79.67"/>
          <polygon class="cls-11" points="56.02 74.75 48.06 69.58 51.69 63.98 53.04 64.85 50.39 68.92 52.16 70.07 54.62 66.29 55.96 67.16 53.51 70.94 55.67 72.34 58.4 68.13 59.75 69 56.02 74.75"/>
          <polygon class="cls-11" points="63.78 63.99 57.82 58.82 56.07 60.83 54.86 59.78 59.55 54.38 60.77 55.43 59.02 57.44 64.98 62.61 63.78 63.99"/>
          <path class="cls-11" d="M67.63,54.69l-3.31-1.72,1.51,3.4,1.81-1.68ZM72.64,55.16l-1.44,1.34-2.04-1.05-2.65,2.47.93,2.09-1.41,1.32-3.91-9.33,1.41-1.32,9.11,4.48Z"/>
          <path class="cls-11" d="M71.23,49.39l1.07-.81c.7-.53,1.11-.89,1.24-1.08s.18-.4.17-.63c-.02-.23-.11-.45-.28-.68-.19-.25-.41-.41-.66-.47s-.51-.02-.77.11c-.13.07-.49.33-1.08.77l-1.13.85,1.45,1.93ZM73.07,54.86l-5.71-7.58,3.06-2.31c.77-.58,1.38-.93,1.83-1.06s.91-.1,1.38.09.88.51,1.22.96c.43.57.62,1.16.59,1.77s-.33,1.2-.89,1.77c.46-.04.87-.02,1.25.05s.96.28,1.75.61l1.99.82-1.74,1.31-2.29-.87c-.82-.31-1.35-.48-1.61-.53-.25-.05-.48-.04-.68.02-.2.06-.47.22-.8.47l-.3.22,2.39,3.17-1.45,1.1Z"/>
          <rect class="cls-18" x="77.48" y="40.64" width="1.83" height="9.49" transform="translate(-12.18 46.87) rotate(-31.01)"/>
          <polygon class="cls-11" points="82.76 48.18 78.45 39.72 80.88 38.48 85.26 43.52 83.75 37.02 86.19 35.78 90.5 44.24 89 45 85.6 38.35 87.41 45.81 85.84 46.61 80.87 40.76 84.26 47.42 82.76 48.18"/>
          <polygon class="cls-11" points="94.84 42.76 92.07 33.68 93.81 33.15 95.04 37.17 97.33 32.07 99.67 31.35 97.5 35.89 102.62 40.38 100.36 41.07 96.69 37.53 95.75 39.48 96.59 42.23 94.84 42.76"/>
          <path class="cls-11" d="M103.92,34.71l1.33-.23c.86-.15,1.39-.29,1.59-.4s.34-.28.43-.49.11-.45.06-.73c-.06-.31-.18-.55-.38-.72-.19-.17-.44-.25-.74-.25-.15,0-.59.07-1.32.2l-1.4.25.42,2.37ZM103.07,40.42l-1.65-9.35,3.78-.66c.95-.17,1.65-.2,2.11-.11.46.09.86.33,1.19.71s.55.85.65,1.41c.12.7.03,1.32-.28,1.84-.31.53-.84.92-1.6,1.17.43.17.79.38,1.1.62s.73.69,1.28,1.34l1.41,1.63-2.14.38-1.65-1.82c-.59-.64-.99-1.04-1.19-1.2-.2-.16-.41-.25-.61-.29-.2-.03-.51-.02-.92.06l-.37.07.69,3.9-1.8.31Z"/>
          <polygon class="cls-11" points="111.47 39.05 111.14 29.57 117.8 29.33 117.86 30.94 113.02 31.11 113.09 33.22 117.59 33.06 117.65 34.66 113.14 34.82 113.24 37.39 118.26 37.21 118.31 38.82 111.47 39.05"/>
          <path class="cls-11" d="M121.68,30.98l-.33,6.28,1.35.07c.51.03.87.01,1.1-.03.3-.06.55-.18.75-.35s.38-.47.52-.89c.14-.42.24-.99.28-1.73.04-.73,0-1.3-.1-1.69-.1-.4-.26-.71-.47-.94s-.48-.39-.81-.49c-.25-.07-.74-.13-1.48-.17l-.82-.05ZM119.94,29.29l3.32.18c.75.04,1.32.13,1.7.27.52.19.95.51,1.31.94s.61.96.78,1.58.22,1.37.18,2.26c-.04.78-.17,1.45-.38,2-.26.68-.61,1.22-1.05,1.63-.33.31-.77.54-1.32.69-.41.11-.95.15-1.62.12l-3.41-.18.5-9.49Z"/>
          <path class="cls-11" d="M129.57,29.23l.24-1.71,1.68.24-.24,1.71-1.68-.24ZM128.06,39.47l1.32-9.4,1.81.25-1.32,9.4-1.81-.25Z"/>
          <polygon class="cls-11" points="134.51 40.51 137.13 31.39 138.88 31.89 137.72 35.93 142.42 32.9 144.78 33.58 140.48 36.19 142.33 42.75 140.06 42.11 138.91 37.14 137.06 38.26 136.27 41.02 134.51 40.51"/>
          <path class="cls-11" d="M146.01,39.1c-.42.99-.52,1.83-.3,2.53.22.7.66,1.18,1.33,1.47s1.33.27,1.97-.06c.64-.32,1.18-1,1.61-2.01.43-1,.53-1.84.33-2.51-.21-.67-.66-1.15-1.35-1.45-.69-.29-1.36-.28-1.99.04-.64.32-1.17.99-1.6,1.99M144.25,38.43c.38-.89.82-1.59,1.33-2.08.38-.37.81-.66,1.28-.87.48-.22.95-.33,1.41-.33.62-.01,1.26.13,1.94.41,1.22.52,2.03,1.34,2.43,2.45.4,1.11.29,2.38-.31,3.81-.6,1.41-1.43,2.36-2.5,2.85-1.07.49-2.21.48-3.43-.04-1.24-.52-2.05-1.34-2.44-2.44-.4-1.1-.3-2.35.29-3.74"/>
          <path class="cls-11" d="M154.95,43.22c-.54.93-.74,1.76-.61,2.47.13.72.51,1.26,1.14,1.62.63.37,1.28.42,1.96.18.68-.24,1.3-.84,1.85-1.8.54-.94.75-1.76.63-2.45s-.51-1.23-1.16-1.6-1.31-.44-1.98-.2c-.67.24-1.28.83-1.83,1.78M153.29,42.34c.49-.84,1.01-1.47,1.58-1.9.42-.32.88-.55,1.38-.71.5-.16.98-.21,1.44-.16.61.07,1.24.28,1.87.65,1.15.66,1.86,1.57,2.11,2.72.25,1.15,0,2.4-.78,3.74-.77,1.33-1.71,2.17-2.83,2.53s-2.25.2-3.4-.46c-1.16-.67-1.87-1.58-2.13-2.72-.25-1.15,0-2.38.75-3.69"/>
          <path class="cls-11" d="M165.4,46.14l-1.63,2.16.79.6c.57.43.98.68,1.24.74.25.07.5.06.73-.03s.44-.24.61-.47c.21-.28.3-.56.29-.86-.02-.3-.13-.55-.33-.78-.15-.17-.48-.44-1-.84l-.7-.53ZM159.19,51.34l5.71-7.58,2.33,1.76c.88.66,1.43,1.14,1.64,1.42.33.42.49.93.48,1.52-.01.59-.24,1.19-.7,1.79-.35.47-.73.8-1.12.99-.4.2-.79.29-1.17.29-.38,0-.72-.07-1.02-.21-.4-.19-.93-.53-1.59-1.03l-.95-.71-2.15,2.86-1.46-1.1Z"/>
          <polygon class="cls-11" points="165.46 56.15 172.05 49.32 176.86 53.95 175.74 55.11 172.25 51.74 170.79 53.26 174.03 56.39 172.92 57.54 169.67 54.41 167.89 56.26 171.5 59.75 170.39 60.91 165.46 56.15"/>
          <path class="cls-11" d="M176.54,59.48l.89,1.02c.57.66.96,1.04,1.16,1.16s.41.16.64.12c.22-.03.44-.14.66-.33.24-.21.38-.44.43-.69.04-.25-.01-.51-.17-.76-.08-.12-.36-.47-.85-1.02l-.93-1.07-1.82,1.58ZM171.21,61.69l7.16-6.23,2.51,2.89c.63.73,1.03,1.31,1.18,1.75s.16.91,0,1.39c-.16.49-.45.91-.87,1.28-.54.47-1.11.7-1.72.71s-1.22-.25-1.83-.76c.08.45.09.87.03,1.25s-.21.98-.49,1.79l-.68,2.05-1.43-1.64.71-2.35c.25-.84.39-1.38.42-1.64.03-.25.01-.48-.06-.68-.07-.19-.25-.45-.52-.76l-.24-.28-2.99,2.6-1.2-1.37Z"/>
          <path class="cls-11" d="M182.48,70.11l2.21-3-3.59.96,1.38,2.05ZM181.22,74.98l-1.1-1.63,1.35-1.85-2.02-3-2.21.59-1.08-1.6,9.83-2.4,1.08,1.6-5.85,8.3Z"/>
          <polygon class="cls-11" points="181.84 76.62 188.8 72.92 187.55 70.56 188.97 69.81 192.32 76.13 190.91 76.88 189.66 74.53 182.7 78.24 181.84 76.62"/>
          <path class="cls-11" d="M193.71,77.22l1.57-.7.69,1.55-1.57.7-.69-1.55ZM184.22,81.36l8.67-3.86.74,1.67-8.67,3.86-.74-1.67Z"/>
          <polygon class="cls-11" points="185.51 84.29 194.44 81.05 196.55 86.87 195.05 87.42 193.55 83.31 191.44 84.08 192.73 87.63 191.22 88.18 189.93 84.63 186.14 86.01 185.51 84.29"/>
          <polygon class="cls-11" points="187.85 91.2 196.99 88.92 197.43 90.69 189.85 92.58 190.94 96.97 189.39 97.36 187.85 91.2"/>
          <polygon class="cls-11" points="189.47 98.23 198.87 96.91 199.8 103.52 198.21 103.74 197.54 98.94 195.45 99.23 196.08 103.7 194.49 103.92 193.86 99.45 191.32 99.81 192.01 104.79 190.43 105.01 189.47 98.23"/>
          <path class="cls-11" d="M196,107.77l.02,1.35c.01.87.06,1.42.14,1.63s.22.38.41.5.43.18.72.17c.32,0,.58-.09.77-.25.19-.17.31-.4.36-.69.02-.15.02-.59.01-1.33l-.02-1.42-2.41.04ZM190.49,106.03l9.49-.17.07,3.83c.02.96-.06,1.67-.22,2.11-.16.44-.46.8-.89,1.06-.43.27-.93.41-1.49.42-.71.01-1.3-.18-1.77-.56s-.78-.97-.91-1.76c-.23.4-.5.72-.78.99-.29.26-.79.61-1.52,1.06l-1.83,1.13-.04-2.18,2.05-1.34c.73-.48,1.18-.81,1.37-.99.19-.18.32-.36.38-.55.07-.2.1-.5.09-.92v-.37s-3.97.07-3.97.07l-.03-1.82Z"/>
          <path class="cls-11" d="M200.8,115.4l1.72.09-.09,1.7-1.72-.09.09-1.7ZM190.46,114.78l9.48.5-.1,1.82-9.48-.5.1-1.82Z"/>
          <path class="cls-7" d="M106.69,193.36l-1.96-.35,1.31-7.62c-.83.56-1.76.92-2.79,1.07l.31-1.84c.54-.08,1.15-.3,1.83-.68s1.19-.86,1.52-1.46l1.59.29-1.81,10.57Z"/>
          <path class="cls-7" d="M112.47,190.75c-.03.57.09,1.02.35,1.35.26.33.6.51,1.02.53.41.02.75-.11,1.04-.4.28-.29.44-.73.47-1.3.02-.5-.09-.92-.35-1.24-.25-.32-.59-.49-1.01-.51-.48-.03-.85.13-1.11.46-.25.33-.39.7-.41,1.11M112.89,186.19c-.02.41.08.73.29.97s.5.37.87.39c.38.02.68-.08.92-.3.24-.22.37-.53.39-.94.02-.39-.08-.7-.29-.94s-.5-.38-.86-.4c-.38-.02-.69.08-.92.3-.24.22-.37.52-.39.91M112.37,188.22c-.5-.25-.86-.58-1.07-.98s-.31-.84-.28-1.31c.04-.8.34-1.44.91-1.93s1.34-.71,2.34-.65c.98.05,1.73.35,2.25.9.52.55.75,1.22.72,2.02-.02.5-.17.93-.44,1.3-.27.37-.64.65-1.1.83.56.27.99.64,1.26,1.11.28.47.4,1.01.37,1.61-.05.99-.4,1.77-1.04,2.36-.64.59-1.47.85-2.48.8-.94-.05-1.71-.35-2.31-.89-.71-.64-1.04-1.49-.98-2.54.03-.58.2-1.1.5-1.57.3-.48.76-.83,1.37-1.05"/>
          <path class="cls-7" d="M121.2,190.59c.03.66.21,1.17.52,1.52.32.34.66.51,1.05.49.37-.02.66-.19.9-.49.23-.31.33-.8.29-1.48-.03-.7-.19-1.2-.48-1.51s-.62-.45-1.02-.43c-.38.02-.7.19-.94.52-.24.32-.35.78-.32,1.38M125.48,185.88l-1.92.32c-.07-.4-.21-.7-.41-.88-.21-.18-.47-.27-.79-.25-.42.02-.76.23-1.03.64s-.41,1.22-.42,2.45c.47-.63,1.06-.96,1.8-1,.83-.04,1.56.24,2.18.86s.96,1.44,1.02,2.47c.06,1.09-.21,1.99-.8,2.68-.59.7-1.37,1.07-2.35,1.12-1.05.06-1.93-.32-2.65-1.12s-1.12-2.16-1.22-4.07c-.1-1.96.18-3.39.84-4.3s1.55-1.38,2.67-1.45c.79-.04,1.45.15,1.99.58.54.43.9,1.08,1.09,1.94"/>
          <path class="cls-7" d="M127.41,190.9l1.86-.58c.14.49.37.84.68,1.06.31.22.65.29,1.02.22.4-.07.71-.29.93-.66s.29-.82.19-1.35c-.09-.51-.29-.89-.6-1.14s-.66-.34-1.04-.27c-.25.04-.54.15-.87.31l-.07-1.67c.53-.08.91-.27,1.15-.58s.32-.66.24-1.08c-.06-.35-.21-.62-.45-.8s-.53-.23-.87-.17c-.33.06-.6.23-.8.52-.2.28-.28.66-.25,1.13h-1.85c.02-.65.12-1.2.31-1.63.19-.43.49-.8.91-1.1.42-.3.91-.5,1.47-.61.96-.18,1.79,0,2.48.53.57.43.91.97,1.02,1.63.16.93-.21,1.76-1.1,2.49.61.02,1.13.23,1.55.61.43.39.7.9.81,1.54.16.92-.03,1.77-.58,2.54-.54.77-1.3,1.24-2.28,1.42-.92.17-1.74.03-2.44-.41-.7-.44-1.18-1.1-1.43-1.97"/>
          <path class="cls-6" d="M137.45,188.08c-.15,0-.29-.1-.33-.26-.04-.18.07-.37.25-.41,27.1-6.65,48.79-27.57,56.62-54.6.05-.18.24-.28.42-.23.18.05.28.24.23.42-7.89,27.26-29.78,48.36-57.11,55.07-.02,0-.05.01-.08.01"/>
          <path class="cls-6" d="M188.85,134.39l-1.08,2.18c-.22.6-.16,1.25.12,1.78l.82,1.3.23.4c.3.51.27,1.17.27,1.17l.22-.43.99-1.99c.3-.72.22-1.52-.16-2.14l-1.41-2.27Z"/>
          <path class="cls-6" d="M186.48,139.01l-1.31,2.42c-.28.67-.23,1.41.07,2.03l.87,1.5.24.46c.32.59.27,1.34.27,1.34l.26-.48,1.19-2.21c.37-.8.31-1.71-.1-2.44l-1.51-2.63Z"/>
          <path class="cls-6" d="M183.69,144.01l-1.36,2.52c-.29.7-.24,1.47.08,2.11l.91,1.57.25.48c.33.61.28,1.4.28,1.4l.27-.5,1.24-2.3c.39-.83.32-1.78-.1-2.54l-1.57-2.74Z"/>
          <path class="cls-6" d="M180.62,148.96l-1.58,2.6c-.34.72-.34,1.55-.03,2.25l.89,1.72.24.52c.32.67.22,1.5.22,1.5l.32-.51,1.44-2.37c.45-.86.44-1.87.02-2.7l-1.51-3Z"/>
          <path class="cls-6" d="M176.91,153.37l-1.94,2.75c-.43.77-.49,1.68-.21,2.48l.85,1.96.23.59c.3.77.15,1.41.15,1.41l2.13-2.79c.57-.92.62-2.03.23-2.98l-1.45-3.43Z"/>
          <path class="cls-6" d="M173.15,158.53l-2.27,2.59c-.52.74-.68,1.67-.47,2.51l.66,2.1.18.63c.23.82-.02,1.36-.02,1.36l2.5-2.52c.68-.87.85-2.01.55-3.02l-1.12-3.67Z"/>
          <path class="cls-6" d="M168.37,163.13l-2.46,2.53c-.58.73-.78,1.67-.61,2.55l.57,2.19.15.66c.19.85-.1,1.4-.1,1.4l2.69-2.44c.74-.86.98-2.01.72-3.06l-.95-3.82Z"/>
          <path class="cls-6" d="M163.47,167.3l-2.77,2.39c-.66.7-.95,1.66-.86,2.58l.4,2.32.1.7c.12.9-.22,1.44-.22,1.44l3.01-2.28c.84-.82,1.19-1.99,1.01-3.11l-.66-4.05Z"/>
          <path class="cls-6" d="M197.87,138.01l-.77,2.31c-.27.58-.76.99-1.34,1.15l-1.47.3-.44.1c-.56.13-1.01.61-1.01.61l.15-.45.71-2.11c.29-.72.91-1.22,1.61-1.37l2.56-.54Z"/>
          <path class="cls-6" d="M196.26,143.39l-1.1,2.53c-.35.63-.96,1.04-1.62,1.16l-1.69.19-.5.07c-.65.09-1.2.59-1.2.59l.21-.5,1-2.31c.4-.79,1.14-1.28,1.95-1.38l2.95-.35Z"/>
          <path class="cls-6" d="M193.74,148.96l-1.1,2.66c-.36.66-.98,1.1-1.66,1.24l-1.76.22-.52.09c-.68.11-1.77.8-1.77.8l1.75-3.11c.4-.83,1.17-1.36,2.01-1.48l3.06-.42Z"/>
          <path class="cls-6" d="M191.03,154.85l-1.66,2.82c-.46.65-1.17,1.03-1.91,1.09h-1.89s-.56.02-.56.02c-.73.03-1.68.41-1.68.41l1.94-2.86c.53-.82,1.4-1.28,2.3-1.29l3.46-.19Z"/>
          <path class="cls-6" d="M187.64,160.64l-2.03,3.08c-.6.64-1.44.95-2.26.89l-2.07-.3-.62-.07c-.8-.09-1.88.33-1.88.33l2.53-2.96c.7-.81,1.73-1.18,2.72-1.05l3.6.08Z"/>
          <path class="cls-6" d="M182.54,166.69l-2.12,2.43c-.62.58-1.45.83-2.24.73l-1.99-.37-.6-.09c-.77-.12-1.72.13-1.72.13l2.49-2.59c.73-.73,1.74-1.03,2.7-.87l3.48.62Z"/>
          <path class="cls-6" d="M177.56,172.32l-2.39,2.42c-.69.57-1.57.77-2.39.61l-2.05-.55-.62-.14c-.8-.18-1.8.01-1.8.01l2.79-2.56c.81-.73,1.89-.96,2.88-.72l3.58.92Z"/>
          <path class="cls-6" d="M171.46,177.46l-2.58,2.2c-.73.5-1.63.63-2.44.39l-2-.73-.6-.2c-.78-.25-1.79-.15-1.79-.15l3-2.3c.87-.65,1.97-.79,2.93-.45l3.5,1.24Z"/>
          <path class="cls-6" d="M158.21,171.25l-2.85,1.97c-.73.63-1.12,1.55-1.12,2.48l.15,2.35.02.7c.03.91-.37,1.41-.37,1.41l3.23-1.95c.92-.73,1.39-1.86,1.33-2.98l-.39-3.97Z"/>
          <path class="cls-6" d="M165.6,181.67l-3.21,2.27c-.78.42-1.69.45-2.47.14l-1.91-.94-.58-.26c-.75-.33-1.77-.34-1.77-.34l3.22-1.98c.93-.56,2.04-.58,2.96-.15l3.76,1.25Z"/>
          <path class="cls-6" d="M100.29,188.49s-.06,0-.08-.01c-27.33-6.71-49.21-27.81-57.11-55.07-.05-.18.05-.37.23-.42.18-.05.37.05.42.23,7.83,27.03,29.52,47.95,56.62,54.6.18.04.29.23.25.41-.03.16-.17.26-.33.26"/>
          <path class="cls-6" d="M48.89,134.81l1.08,2.18c.22.6.16,1.25-.12,1.78l-.82,1.3-.23.4c-.3.51-.27,1.17-.27,1.17l-.22-.43-.99-1.99c-.3-.72-.22-1.52.16-2.14l1.41-2.27Z"/>
          <path class="cls-6" d="M51.26,139.42l1.31,2.42c.28.67.23,1.41-.07,2.03l-.87,1.5-.24.46c-.32.59-.27,1.34-.27,1.34l-.26-.48-1.19-2.21c-.37-.8-.31-1.71.1-2.44l1.51-2.63Z"/>
          <path class="cls-6" d="M54.05,144.43l1.36,2.52c.29.7.24,1.47-.08,2.11l-.91,1.57-.25.48c-.33.61-.28,1.4-.28,1.4l-.27-.5-1.24-2.3c-.39-.83-.32-1.78.1-2.54l1.57-2.74Z"/>
          <path class="cls-6" d="M57.11,149.38l1.58,2.6c.34.72.34,1.55.03,2.25l-.89,1.72-.24.52c-.32.67-.22,1.5-.22,1.5l-.32-.51-1.44-2.37c-.45-.86-.44-1.87-.02-2.7l1.52-3Z"/>
          <path class="cls-6" d="M60.83,153.79l1.94,2.75c.43.77.49,1.68.21,2.48l-.85,1.96-.23.59c-.3.77-.15,1.41-.15,1.41l-2.13-2.79c-.57-.92-.62-2.03-.23-2.98l1.45-3.43Z"/>
          <path class="cls-6" d="M64.59,158.95l2.27,2.59c.52.74.68,1.67.47,2.51l-.66,2.1-.18.63c-.23.82.02,1.36.02,1.36l-2.5-2.52c-.68-.87-.85-2.01-.55-3.02l1.12-3.67Z"/>
          <path class="cls-6" d="M69.37,163.55l2.46,2.53c.58.73.78,1.67.61,2.55l-.57,2.19-.15.66c-.19.85.1,1.4.1,1.4l-2.69-2.44c-.74-.86-.97-2.01-.72-3.06l.95-3.82Z"/>
          <path class="cls-6" d="M74.27,167.72l2.77,2.39c.66.7.95,1.66.86,2.58l-.4,2.32-.1.7c-.12.9.22,1.44.22,1.44l-3.01-2.28c-.84-.82-1.19-1.99-1.01-3.11l.66-4.05Z"/>
          <path class="cls-6" d="M39.87,138.42l.77,2.31c.27.58.76.99,1.34,1.15l1.47.3.44.1c.56.13,1.01.61,1.01.61l-.15-.45-.71-2.11c-.29-.72-.91-1.22-1.61-1.37l-2.56-.54Z"/>
          <path class="cls-6" d="M41.48,143.8l1.1,2.53c.35.63.96,1.04,1.62,1.16l1.69.19.5.07c.65.09,1.2.59,1.2.59l-.21-.5-1-2.31c-.4-.79-1.14-1.28-1.95-1.38l-2.95-.35Z"/>
          <path class="cls-6" d="M44,149.37l1.1,2.66c.36.66.98,1.1,1.66,1.24l1.76.22.52.09c.68.11,1.77.79,1.77.79l-1.75-3.11c-.4-.83-1.17-1.36-2.01-1.48l-3.06-.41Z"/>
          <path class="cls-6" d="M46.71,155.27l1.66,2.82c.46.65,1.17,1.03,1.91,1.09h1.89s.56.02.56.02c.73.03,1.68.41,1.68.41l-1.94-2.86c-.53-.82-1.4-1.28-2.3-1.29l-3.46-.19Z"/>
          <path class="cls-6" d="M50.1,161.06l2.03,3.08c.6.64,1.44.95,2.26.89l2.07-.3.62-.07c.8-.09,1.88.33,1.88.33l-2.53-2.96c-.7-.81-1.73-1.18-2.72-1.05l-3.6.08Z"/>
          <path class="cls-6" d="M55.2,167.11l2.12,2.43c.62.58,1.45.83,2.24.73l1.99-.37.6-.09c.77-.12,1.72.13,1.72.13l-2.49-2.59c-.73-.73-1.74-1.03-2.7-.87l-3.48.62Z"/>
          <path class="cls-6" d="M60.17,172.74l2.39,2.42c.69.57,1.57.77,2.39.61l2.05-.55.62-.14c.8-.18,1.8.01,1.8.01l-2.79-2.56c-.81-.73-1.89-.96-2.88-.72l-3.58.92Z"/>
          <path class="cls-6" d="M66.27,177.87l2.58,2.2c.73.5,1.63.63,2.44.39l2-.73.6-.2c.78-.25,1.79-.15,1.79-.15l-3-2.3c-.87-.65-1.97-.79-2.93-.45l-3.5,1.24Z"/>
          <path class="cls-6" d="M79.53,171.66l2.85,1.97c.73.63,1.12,1.55,1.12,2.48l-.15,2.35-.02.7c-.03.91.37,1.41.37,1.41l-3.23-1.95c-.92-.73-1.39-1.86-1.33-2.98l.39-3.98Z"/>
          <path class="cls-6" d="M72.14,182.09l3.21,2.27c.78.42,1.69.45,2.47.14l1.91-.94.58-.26c.75-.33,1.77-.34,1.77-.34l-3.22-1.98c-.93-.56-2.04-.58-2.96-.14l-3.76,1.25Z"/>
        </g>
      </g>
      <g class="cls-13">
        <path class="cls-14" d="M107.76,489.33c0,14.45-10.53,25.28-38.55,25.28H29.74v-87.18h34.34c28.55,0,38.68,8.47,38.68,22.17,0,10.46-6.32,15.57-16.18,17.93,14.74,2.74,21.18,10.09,21.18,21.79ZM52.9,444.37v17.69h14.74c6.32,0,11.45-2.37,11.45-8.97s-5.13-8.72-13.55-8.72h-12.63ZM83.69,487.71c0-8.97-7.76-10.71-13.95-10.71h-16.84v20.8h17.1c7.76,0,13.68-2.86,13.68-10.09Z"/>
        <path class="cls-14" d="M206.84,471.15c0,31.38-22.24,45.83-47.24,45.83-22.63,0-47.1-12.7-47.1-46.08s22.37-45.83,47.1-45.83c22.89,0,47.24,11.96,47.24,46.08ZM136.45,470.77c0,17.93,8.03,28.27,23.16,28.27,13.29,0,23.29-9.47,23.29-27.77s-8.03-28.15-23.29-28.15c-13.68,0-23.16,9.84-23.16,27.65Z"/>
        <path class="cls-14" d="M258.29,480.36v34.25h-23.16v-34l-31.45-53.18h26.32l16.97,35.74,17.24-35.74h25.53l-31.45,52.93Z"/>
        <path class="cls-14" d="M326.97,477.87l-10.13,10.59v26.15h-23.16v-87.18h23.16v35.5l31.71-35.5h27.24l-32.89,35.5,35.39,51.68h-27.5l-23.82-36.74Z"/>
        <path class="cls-14" d="M470.92,471.15c0,31.38-22.24,45.83-47.24,45.83-22.63,0-47.1-12.7-47.1-46.08s22.37-45.83,47.1-45.83c22.89,0,47.24,11.96,47.24,46.08ZM400.53,470.77c0,17.93,8.03,28.27,23.16,28.27,13.29,0,23.29-9.47,23.29-27.77s-8.03-28.15-23.29-28.15c-13.68,0-23.16,9.84-23.16,27.65Z"/>
        <path class="cls-14" d="M547.11,445.49h-25.66v69.12h-23.29v-69.12h-25.53v-18.06h74.47v18.06Z"/>
      </g>
    </g>
  </g>
</svg>