<?xml version="1.0" encoding="UTF-8"?>
<svg xmlns="http://www.w3.org/2000/svg" version="1.1" xmlns:xlink="http://www.w3.org/1999/xlink" viewBox="0 0 1000 1300">
  <defs>
    <style>
      .cls-1 {
        fill: #ff2e2e;
      }

      .cls-2 {
        clip-path: url(#clippath-6);
      }

      .cls-3 {
        clip-path: url(#clippath-7);
      }

      .cls-4 {
        fill: url(#Adsız_degrade_739);
      }

      .cls-5 {
        clip-path: url(#clippath-4);
      }

      .cls-6 {
        fill: url(#Adsız_degrade_806-2);
      }

      .cls-7 {
        fill: url(#Adsız_degrade_806);
      }

      .cls-8 {
        fill: #4d4d4d;
      }

      .cls-9, .cls-10 {
        fill: #fff;
      }

      .cls-11, .cls-12 {
        fill: none;
      }

      .cls-13 {
        clip-path: url(#clippath-1);
      }

      .cls-14 {
        fill: url(#Adsız_degrade_12);
      }

      .cls-15 {
        fill: url(#Adsız_degrade_786-2);
      }

      .cls-10 {
        font-family: Arial-BoldMT, Arial;
        font-size: 90px;
        font-weight: 700;
        isolation: isolate;
      }

      .cls-16 {
        clip-path: url(#clippath-5);
      }

      .cls-12 {
        clip-path: url(#clippath);
      }

      .cls-17 {
        clip-path: url(#clippath-8);
      }

      .cls-18 {
        fill: #480505;
      }

      .cls-19 {
        clip-path: url(#clippath-3);
      }

      .cls-20 {
        fill: url(#Adsız_degrade_261);
      }

      .cls-21 {
        fill: url(#Adsız_degrade_786);
      }

      .cls-22 {
        clip-path: url(#clippath-2);
      }

      .cls-23 {
        fill: url(#Adsız_degrade_739-2);
      }

      .cls-24 {
        fill: #fdfcfc;
      }
    </style>
    <linearGradient id="Adsız_degrade_12" data-name="Adsız degrade 12" x1="-458.5" y1="1189.6" x2="-457.5" y2="1189.6" gradientTransform="translate(458541 1547110) scale(1000 -1300)" gradientUnits="userSpaceOnUse">
      <stop offset="0" stop-color="#fe1616"/>
      <stop offset=".4" stop-color="#eb1717"/>
      <stop offset="1" stop-color="#c81919"/>
    </linearGradient>
    <clipPath id="clippath">
      <polygon class="cls-11" points="1 1 2 1 1 2 1 1"/>
    </clipPath>
    <clipPath id="clippath-1">
      <polygon class="cls-12" points="-1 -1 -2 -1 -1 -2 -1 -1"/>
    </clipPath>
    <clipPath id="clippath-2">
      <path class="cls-11" d="M657,164.5c0,5.8,4.7,10.5,10.5,10.5h0c5.8,0,10.5-4.7,10.5-10.5h0c0-5.8-4.7-10.5-10.5-10.5h0c-5.8,0-10.5,4.7-10.5,10.5ZM594,154v21h10.5c5.8,0,10.5-4.7,10.5-10.5h0c0-5.8-4.7-10.5-10.5-10.5h-10.5ZM573,154v63h10.5c5.8,0,10.5-4.7,10.5-10.5h0v-52.5h-21ZM562.5,154c-5.8,0-10.5,4.7-10.5,10.5h0c0,5.8,4.7,10.5,10.5,10.5h10.5v-21h-10.5ZM510,154v31.5c0,5.8,4.7,10.5,10.5,10.5h10.5v-31.5c0-5.8-4.7-10.5-10.5-10.5h-10.5ZM499.5,154c-5.8,0-10.5,4.7-10.5,10.5h0c0,5.8,4.7,10.5,10.5,10.5h10.5v-21h-10.5ZM363,154v42h10.5c5.8,0,10.5-4.7,10.5-10.5h0v-21c0-5.8-4.7-10.5-10.5-10.5h-10.5ZM352.5,154c-5.8,0-10.5,4.7-10.5,10.5h0v105c0,5.8,4.7,10.5,10.5,10.5h10.5v-126h-10.5ZM636,185.5v42c0,5.8,4.7,10.5,10.5,10.5h10.5v-52.5c0-5.8-4.7-10.5-10.5-10.5h0c-5.8,0-10.5,4.7-10.5,10.5ZM531,175v21h10.5c5.8,0,10.5-4.7,10.5-10.5h0c0-5.8-4.7-10.5-10.5-10.5h-10.5ZM468,175v21h10.5c5.8,0,10.5-4.7,10.5-10.5h0c0-5.8-4.7-10.5-10.5-10.5h-10.5ZM447,175v21h21v-21h-21ZM426,175v21h21v-21h-21ZM415.5,175c-5.8,0-10.5,4.7-10.5,10.5h0v73.5h21v-84h-10.5ZM657,196v42h10.5c5.8,0,10.5-4.7,10.5-10.5h0v-21c0-5.8-4.7-10.5-10.5-10.5h-10.5ZM625.5,196c-5.8,0-10.5,4.7-10.5,10.5h0c0,5.8,4.7,10.5,10.5,10.5h10.5v-21h-10.5ZM562.5,196c-5.8,0-10.5,4.7-10.5,10.5h0v31.5h10.5c5.8,0,10.5-4.7,10.5-10.5h0v-31.5h-10.5ZM394.5,196c-5.8,0-10.5,4.7-10.5,10.5h0c0,5.8,4.7,10.5,10.5,10.5h10.5v-21h-10.5ZM331.5,196c-5.8,0-10.5,4.7-10.5,10.5h0v21c0,5.8,4.7,10.5,10.5,10.5h10.5v-42h-10.5ZM594,227.5c0,5.8,4.7,10.5,10.5,10.5h0c5.8,0,10.5-4.7,10.5-10.5h0c0-5.8-4.7-10.5-10.5-10.5h0c-5.8,0-10.5,4.7-10.5,10.5ZM531,217v21h21v-21h-21ZM520.5,217c-5.8,0-10.5,4.7-10.5,10.5h0c0,5.8,4.7,10.5,10.5,10.5h10.5v-21h-10.5ZM468,217v42h10.5c5.8,0,10.5-4.7,10.5-10.5h0v-21c0-5.8-4.7-10.5-10.5-10.5h-10.5ZM447,217v136.5c0,5.8,4.7,10.5,10.5,10.5h10.5v-147h-21ZM426,217v42h21v-42h-21ZM363,217v21h10.5c5.8,0,10.5-4.7,10.5-10.5h0c0-5.8-4.7-10.5-10.5-10.5h-10.5ZM615,248.5v42c0,5.8,4.7,10.5,10.5,10.5h0c5.8,0,10.5-4.7,10.5-10.5h0v-42c0-5.8-4.7-10.5-10.5-10.5h0c-5.8,0-10.5,4.7-10.5,10.5ZM394.5,238c-5.8,0-10.5,4.7-10.5,10.5h0c0,5.8,4.7,10.5,10.5,10.5h10.5v-21h-10.5ZM657,259v73.5c0,5.8,4.7,10.5,10.5,10.5h10.5v-73.5c0-5.8-4.7-10.5-10.5-10.5h-10.5ZM636,259v21h21v-21h-21ZM489,269.5v42c0,5.8,4.7,10.5,10.5,10.5h0c5.8,0,10.5-4.7,10.5-10.5h0v-42c0-5.8-4.7-10.5-10.5-10.5h0c-5.8,0-10.5,4.7-10.5,10.5ZM363,259v31.5c0,5.8,4.7,10.5,10.5,10.5h0c5.8,0,10.5-4.7,10.5-10.5h0v-21c0-5.8-4.7-10.5-10.5-10.5h-10.5ZM573,290.5v31.5h21v-31.5c0-5.8-4.7-10.5-10.5-10.5h0c-5.8,0-10.5,4.7-10.5,10.5ZM531,290.5c0,5.8,4.7,10.5,10.5,10.5h0c5.8,0,10.5-4.7,10.5-10.5h0c0-5.8-4.7-10.5-10.5-10.5h0c-5.8,0-10.5,4.7-10.5,10.5ZM405,290.5c0,5.8,4.7,10.5,10.5,10.5h0c5.8,0,10.5-4.7,10.5-10.5h0c0-5.8-4.7-10.5-10.5-10.5h0c-5.8,0-10.5,4.7-10.5,10.5ZM321,290.5v84c0,5.8,4.7,10.5,10.5,10.5h10.5v-94.5c0-5.8-4.7-10.5-10.5-10.5h0c-5.8,0-10.5,4.7-10.5,10.5ZM646.5,301c-5.8,0-10.5,4.7-10.5,10.5h0c0,5.8,4.7,10.5,10.5,10.5h10.5v-21h-10.5ZM594,301v31.5c0,5.8,4.7,10.5,10.5,10.5h10.5v-31.5c0-5.8-4.7-10.5-10.5-10.5h-10.5ZM562.5,301c-5.8,0-10.5,4.7-10.5,10.5h0c0,5.8,4.7,10.5,10.5,10.5h10.5v-21h-10.5ZM384,311.5c0,5.8,4.7,10.5,10.5,10.5h0c5.8,0,10.5-4.7,10.5-10.5h0c0-5.8-4.7-10.5-10.5-10.5h0c-5.8,0-10.5,4.7-10.5,10.5ZM783,322v52.5c0,5.8,4.7,10.5,10.5,10.5h0c5.8,0,10.5-4.7,10.5-10.5h0v-42c0-5.8-4.7-10.5-10.5-10.5h-10.5ZM772.5,322c-5.8,0-10.5,4.7-10.5,10.5h0v31.5h21v-42h-10.5ZM699,322v42h10.5c5.8,0,10.5-4.7,10.5-10.5h0v-21c0-5.8-4.7-10.5-10.5-10.5h-10.5ZM678,322v63h10.5c5.8,0,10.5-4.7,10.5-10.5h0v-52.5h-21ZM615,322v31.5c0,5.8,4.7,10.5,10.5,10.5h10.5v-31.5c0-5.8-4.7-10.5-10.5-10.5h-10.5ZM405,332.5c0,5.8,4.7,10.5,10.5,10.5h0c5.8,0,10.5-4.7,10.5-10.5h0c0-5.8-4.7-10.5-10.5-10.5h0c-5.8,0-10.5,4.7-10.5,10.5ZM300,322v21h21v-21h-21ZM289.5,322c-5.8,0-10.5,4.7-10.5,10.5h0c0,5.8,4.7,10.5,10.5,10.5h10.5v-21h-10.5ZM237,332.5v31.5h21v-31.5c0-5.8-4.7-10.5-10.5-10.5h0c-5.8,0-10.5,4.7-10.5,10.5ZM751.5,343c-5.8,0-10.5,4.7-10.5,10.5h0v21c0,5.8,4.7,10.5,10.5,10.5h0c5.8,0,10.5-4.7,10.5-10.5h0v-31.5h-10.5ZM636,343v31.5c0,5.8,4.7,10.5,10.5,10.5h10.5v-31.5c0-5.8-4.7-10.5-10.5-10.5h-10.5ZM573,353.5c0,5.8,4.7,10.5,10.5,10.5h0c5.8,0,10.5-4.7,10.5-10.5h0c0-5.8-4.7-10.5-10.5-10.5h0c-5.8,0-10.5,4.7-10.5,10.5ZM468,343v31.5c0,5.8,4.7,10.5,10.5,10.5h10.5v-31.5c0-5.8-4.7-10.5-10.5-10.5h-10.5ZM258,343v21h10.5c5.8,0,10.5-4.7,10.5-10.5h0c0-5.8-4.7-10.5-10.5-10.5h-10.5ZM216,343v21h21v-21h-21ZM205.5,343c-5.8,0-10.5,4.7-10.5,10.5h0c0,5.8,4.7,10.5,10.5,10.5h10.5v-21h-10.5ZM153,353.5v21c0,5.8,4.7,10.5,10.5,10.5h10.5v-31.5c0-5.8-4.7-10.5-10.5-10.5h0c-5.8,0-10.5,4.7-10.5,10.5ZM825,374.5c0,5.8,4.7,10.5,10.5,10.5h0c5.8,0,10.5-4.7,10.5-10.5h0c0-5.8-4.7-10.5-10.5-10.5h0c-5.8,0-10.5,4.7-10.5,10.5ZM657,364v52.5c0,5.8,4.7,10.5,10.5,10.5h0c5.8,0,10.5-4.7,10.5-10.5h0v-52.5h-21ZM594,374.5c0,5.8,4.7,10.5,10.5,10.5h0c5.8,0,10.5-4.7,10.5-10.5h0c0-5.8-4.7-10.5-10.5-10.5h0c-5.8,0-10.5,4.7-10.5,10.5ZM552,374.5c0,5.8,4.7,10.5,10.5,10.5h0c5.8,0,10.5-4.7,10.5-10.5h0c0-5.8-4.7-10.5-10.5-10.5h0c-5.8,0-10.5,4.7-10.5,10.5ZM489,364v21h10.5c5.8,0,10.5-4.7,10.5-10.5h0c0-5.8-4.7-10.5-10.5-10.5h-10.5ZM426,374.5c0,5.8,4.7,10.5,10.5,10.5h0c5.8,0,10.5-4.7,10.5-10.5h0c0-5.8-4.7-10.5-10.5-10.5h0c-5.8,0-10.5,4.7-10.5,10.5ZM342,364v21h10.5c5.8,0,10.5-4.7,10.5-10.5h0c0-5.8-4.7-10.5-10.5-10.5h-10.5ZM279,374.5c0,5.8,4.7,10.5,10.5,10.5h0c5.8,0,10.5-4.7,10.5-10.5h0c0-5.8-4.7-10.5-10.5-10.5h0c-5.8,0-10.5,4.7-10.5,10.5ZM174,364v115.5c0,5.8,4.7,10.5,10.5,10.5h0c5.8,0,10.5-4.7,10.5-10.5h0v-105c0-5.8-4.7-10.5-10.5-10.5h-10.5ZM762,395.5v31.5h10.5c5.8,0,10.5-4.7,10.5-10.5h0v-21c0-5.8-4.7-10.5-10.5-10.5h0c-5.8,0-10.5,4.7-10.5,10.5ZM699,395.5c0,5.8,4.7,10.5,10.5,10.5h0c5.8,0,10.5-4.7,10.5-10.5h0c0-5.8-4.7-10.5-10.5-10.5h0c-5.8,0-10.5,4.7-10.5,10.5ZM363,395.5v105c0,5.8,4.7,10.5,10.5,10.5h0c5.8,0,10.5-4.7,10.5-10.5h0v-105c0-5.8-4.7-10.5-10.5-10.5h0c-5.8,0-10.5,4.7-10.5,10.5ZM195,385v42h21v-31.5c0-5.8-4.7-10.5-10.5-10.5h-10.5ZM751.5,406c-5.8,0-10.5,4.7-10.5,10.5h0v31.5h10.5c5.8,0,10.5-4.7,10.5-10.5h0v-31.5h-10.5ZM300,406v31.5c0,5.8,4.7,10.5,10.5,10.5h10.5v-31.5c0-5.8-4.7-10.5-10.5-10.5h-10.5ZM289.5,406c-5.8,0-10.5,4.7-10.5,10.5h0c0,5.8,4.7,10.5,10.5,10.5h10.5v-21h-10.5ZM216,406v31.5c0,5.8,4.7,10.5,10.5,10.5h10.5v-31.5c0-5.8-4.7-10.5-10.5-10.5h-10.5ZM825,437.5c0,5.8,4.7,10.5,10.5,10.5h0c5.8,0,10.5-4.7,10.5-10.5h0c0-5.8-4.7-10.5-10.5-10.5h0c-5.8,0-10.5,4.7-10.5,10.5ZM783,437.5c0,5.8,4.7,10.5,10.5,10.5h0c5.8,0,10.5-4.7,10.5-10.5h0c0-5.8-4.7-10.5-10.5-10.5h0c-5.8,0-10.5,4.7-10.5,10.5ZM720,427v21h21v-21h-21ZM709.5,427c-5.8,0-10.5,4.7-10.5,10.5h0c0,5.8,4.7,10.5,10.5,10.5h10.5v-21h-10.5ZM636,437.5c0,5.8,4.7,10.5,10.5,10.5h0c5.8,0,10.5-4.7,10.5-10.5h0c0-5.8-4.7-10.5-10.5-10.5h0c-5.8,0-10.5,4.7-10.5,10.5ZM342,427v21h21v-21h-21ZM321,427v21h21v-21h-21ZM258,427v126h21v-115.5c0-5.8-4.7-10.5-10.5-10.5h-10.5ZM237,427v21h21v-21h-21ZM163.5,427c-5.8,0-10.5,4.7-10.5,10.5h0v21c0,5.8,4.7,10.5,10.5,10.5h10.5v-42h-10.5ZM804,458.5c0,5.8,4.7,10.5,10.5,10.5h0c5.8,0,10.5-4.7,10.5-10.5h0c0-5.8-4.7-10.5-10.5-10.5h0c-5.8,0-10.5,4.7-10.5,10.5ZM762,458.5v115.5h21v-115.5c0-5.8-4.7-10.5-10.5-10.5h0c-5.8,0-10.5,4.7-10.5,10.5ZM678,458.5c0,5.8,4.7,10.5,10.5,10.5h0c5.8,0,10.5-4.7,10.5-10.5h0c0-5.8-4.7-10.5-10.5-10.5h0c-5.8,0-10.5,4.7-10.5,10.5ZM279,448v21h10.5c5.8,0,10.5-4.7,10.5-10.5h0c0-5.8-4.7-10.5-10.5-10.5h-10.5ZM195,448v21h10.5c5.8,0,10.5-4.7,10.5-10.5h0c0-5.8-4.7-10.5-10.5-10.5h-10.5ZM783,469v21h10.5c5.8,0,10.5-4.7,10.5-10.5h0c0-5.8-4.7-10.5-10.5-10.5h-10.5ZM699,479.5c0,5.8,4.7,10.5,10.5,10.5h0c5.8,0,10.5-4.7,10.5-10.5h0c0-5.8-4.7-10.5-10.5-10.5h0c-5.8,0-10.5,4.7-10.5,10.5ZM636,479.5c0,5.8,4.7,10.5,10.5,10.5h0c5.8,0,10.5-4.7,10.5-10.5h0c0-5.8-4.7-10.5-10.5-10.5h0c-5.8,0-10.5,4.7-10.5,10.5ZM342,469v21h21v-21h-21ZM331.5,469c-5.8,0-10.5,4.7-10.5,10.5h0c0,5.8,4.7,10.5,10.5,10.5h10.5v-21h-10.5ZM237,469v21h21v-21h-21ZM226.5,469c-5.8,0-10.5,4.7-10.5,10.5h0v21c0,5.8,4.7,10.5,10.5,10.5h0c5.8,0,10.5-4.7,10.5-10.5h0v-31.5h-10.5ZM804,500.5v52.5h10.5c5.8,0,10.5-4.7,10.5-10.5h0v-42c0-5.8-4.7-10.5-10.5-10.5h0c-5.8,0-10.5,4.7-10.5,10.5ZM657,500.5c0,5.8,4.7,10.5,10.5,10.5h0c5.8,0,10.5-4.7,10.5-10.5h0c0-5.8-4.7-10.5-10.5-10.5h0c-5.8,0-10.5,4.7-10.5,10.5ZM279,490v21h10.5c5.8,0,10.5-4.7,10.5-10.5h0c0-5.8-4.7-10.5-10.5-10.5h-10.5ZM153,500.5v42c0,5.8,4.7,10.5,10.5,10.5h10.5v-52.5c0-5.8-4.7-10.5-10.5-10.5h0c-5.8,0-10.5,4.7-10.5,10.5ZM720,521.5c0,5.8,4.7,10.5,10.5,10.5h0c5.8,0,10.5-4.7,10.5-10.5h0c0-5.8-4.7-10.5-10.5-10.5h0c-5.8,0-10.5,4.7-10.5,10.5ZM615,521.5v21c0,5.8,4.7,10.5,10.5,10.5h0c5.8,0,10.5-4.7,10.5-10.5h0v-21c0-5.8-4.7-10.5-10.5-10.5h0c-5.8,0-10.5,4.7-10.5,10.5ZM321,511v63h10.5c5.8,0,10.5-4.7,10.5-10.5h0v-42c0-5.8-4.7-10.5-10.5-10.5h-10.5ZM310.5,511c-5.8,0-10.5,4.7-10.5,10.5h0c0,5.8,4.7,10.5,10.5,10.5h10.5v-21h-10.5ZM247.5,511c-5.8,0-10.5,4.7-10.5,10.5h0v52.5h10.5c5.8,0,10.5-4.7,10.5-10.5h0v-52.5h-10.5ZM195,511v21h10.5c5.8,0,10.5-4.7,10.5-10.5h0c0-5.8-4.7-10.5-10.5-10.5h-10.5ZM174,511v147h21v-147h-21ZM783,532v52.5c0,5.8,4.7,10.5,10.5,10.5h0c5.8,0,10.5-4.7,10.5-10.5h0v-52.5h-21ZM699,532v21h10.5c5.8,0,10.5-4.7,10.5-10.5h0c0-5.8-4.7-10.5-10.5-10.5h-10.5ZM678,532v31.5c0,5.8,4.7,10.5,10.5,10.5h0c5.8,0,10.5-4.7,10.5-10.5h0v-31.5h-21ZM667.5,532c-5.8,0-10.5,4.7-10.5,10.5h0c0,5.8,4.7,10.5,10.5,10.5h10.5v-21h-10.5ZM279,532v21h10.5c5.8,0,10.5-4.7,10.5-10.5h0c0-5.8-4.7-10.5-10.5-10.5h-10.5ZM825,563.5v21c0,5.8,4.7,10.5,10.5,10.5h0c5.8,0,10.5-4.7,10.5-10.5h0v-21c0-5.8-4.7-10.5-10.5-10.5h0c-5.8,0-10.5,4.7-10.5,10.5ZM741,553v21h21v-21h-21ZM730.5,553c-5.8,0-10.5,4.7-10.5,10.5h0v21c0,5.8,4.7,10.5,10.5,10.5h0c5.8,0,10.5-4.7,10.5-10.5h0v-31.5h-10.5ZM636,563.5c0,5.8,4.7,10.5,10.5,10.5h0c5.8,0,10.5-4.7,10.5-10.5h0c0-5.8-4.7-10.5-10.5-10.5h0c-5.8,0-10.5,4.7-10.5,10.5ZM310.5,553c-5.8,0-10.5,4.7-10.5,10.5h0v31.5h10.5c5.8,0,10.5-4.7,10.5-10.5h0v-31.5h-10.5ZM216,553v31.5c0,5.8,4.7,10.5,10.5,10.5h0c5.8,0,10.5-4.7,10.5-10.5h0v-31.5h-21ZM195,553v21h21v-21h-21ZM615,584.5v94.5h10.5c5.8,0,10.5-4.7,10.5-10.5h0v-84c0-5.8-4.7-10.5-10.5-10.5h0c-5.8,0-10.5,4.7-10.5,10.5ZM363,584.5c0,5.8,4.7,10.5,10.5,10.5h0c5.8,0,10.5-4.7,10.5-10.5h0c0-5.8-4.7-10.5-10.5-10.5h0c-5.8,0-10.5,4.7-10.5,10.5ZM289.5,574c-5.8,0-10.5,4.7-10.5,10.5h0c0,5.8,4.7,10.5,10.5,10.5h10.5v-21h-10.5ZM163.5,574c-5.8,0-10.5,4.7-10.5,10.5h0c0,5.8,4.7,10.5,10.5,10.5h10.5v-21h-10.5ZM804,605.5c0,5.8,4.7,10.5,10.5,10.5h0c5.8,0,10.5-4.7,10.5-10.5h0c0-5.8-4.7-10.5-10.5-10.5h0c-5.8,0-10.5,4.7-10.5,10.5ZM762,605.5v31.5h10.5c5.8,0,10.5-4.7,10.5-10.5h0v-21c0-5.8-4.7-10.5-10.5-10.5h0c-5.8,0-10.5,4.7-10.5,10.5ZM699,595v21h10.5c5.8,0,10.5-4.7,10.5-10.5h0c0-5.8-4.7-10.5-10.5-10.5h-10.5ZM688.5,595c-5.8,0-10.5,4.7-10.5,10.5h0v73.5h21v-84h-10.5ZM342,595v21h10.5c5.8,0,10.5-4.7,10.5-10.5h0c0-5.8-4.7-10.5-10.5-10.5h-10.5ZM331.5,595c-5.8,0-10.5,4.7-10.5,10.5h0c0,5.8,4.7,10.5,10.5,10.5h10.5v-21h-10.5ZM751.5,616c-5.8,0-10.5,4.7-10.5,10.5h0v199.5h10.5c5.8,0,10.5-4.7,10.5-10.5h0v-199.5h-10.5ZM667.5,616c-5.8,0-10.5,4.7-10.5,10.5h0c0,5.8,4.7,10.5,10.5,10.5h10.5v-21h-10.5ZM552,616v21h10.5c5.8,0,10.5-4.7,10.5-10.5h0c0-5.8-4.7-10.5-10.5-10.5h-10.5ZM531,616v21h21v-21h-21ZM520.5,616c-5.8,0-10.5,4.7-10.5,10.5h0v21c0,5.8,4.7,10.5,10.5,10.5h0c5.8,0,10.5-4.7,10.5-10.5h0v-31.5h-10.5ZM468,626.5c0,5.8,4.7,10.5,10.5,10.5h0c5.8,0,10.5-4.7,10.5-10.5h0c0-5.8-4.7-10.5-10.5-10.5h0c-5.8,0-10.5,4.7-10.5,10.5ZM426,626.5c0,5.8,4.7,10.5,10.5,10.5h0c5.8,0,10.5-4.7,10.5-10.5h0c0-5.8-4.7-10.5-10.5-10.5h0c-5.8,0-10.5,4.7-10.5,10.5ZM300,616v21h10.5c5.8,0,10.5-4.7,10.5-10.5h0c0-5.8-4.7-10.5-10.5-10.5h-10.5ZM279,616v21h21v-21h-21ZM268.5,616c-5.8,0-10.5,4.7-10.5,10.5h0v31.5h10.5c5.8,0,10.5-4.7,10.5-10.5h0v-31.5h-10.5ZM825,637v21h10.5c5.8,0,10.5-4.7,10.5-10.5h0c0-5.8-4.7-10.5-10.5-10.5h-10.5ZM804,637v63h21v-63h-21ZM793.5,637c-5.8,0-10.5,4.7-10.5,10.5h0v63c0,5.8,4.7,10.5,10.5,10.5h0c5.8,0,10.5-4.7,10.5-10.5h0v-73.5h-10.5ZM720,637v42h21v-42h-21ZM699,637v42h21v-42h-21ZM384,637v21h10.5c5.8,0,10.5-4.7,10.5-10.5h0c0-5.8-4.7-10.5-10.5-10.5h-10.5ZM363,637v31.5c0,5.8,4.7,10.5,10.5,10.5h0c5.8,0,10.5-4.7,10.5-10.5h0v-31.5h-21ZM342,637v21h21v-21h-21ZM331.5,637c-5.8,0-10.5,4.7-10.5,10.5h0c0,5.8,4.7,10.5,10.5,10.5h10.5v-21h-10.5ZM237,637v42h10.5c5.8,0,10.5-4.7,10.5-10.5h0v-31.5h-21ZM216,637v31.5c0,5.8,4.7,10.5,10.5,10.5h10.5v-42h-21ZM195,637v21h21v-21h-21ZM163.5,637c-5.8,0-10.5,4.7-10.5,10.5h0v21c0,5.8,4.7,10.5,10.5,10.5h0c5.8,0,10.5-4.7,10.5-10.5h0v-31.5h-10.5ZM667.5,658c-5.8,0-10.5,4.7-10.5,10.5h0v94.5h21v-105h-10.5ZM594,658v21h21v-21h-21ZM583.5,658c-5.8,0-10.5,4.7-10.5,10.5h0c0,5.8,4.7,10.5,10.5,10.5h10.5v-21h-10.5ZM489,658v63h21v-52.5c0-5.8-4.7-10.5-10.5-10.5h-10.5ZM468,658v157.5c0,5.8,4.7,10.5,10.5,10.5h10.5v-168h-21ZM447,658v21h21v-21h-21ZM426,658v21h21v-21h-21ZM415.5,658c-5.8,0-10.5,4.7-10.5,10.5h0c0,5.8,4.7,10.5,10.5,10.5h10.5v-21h-10.5ZM300,658v21h10.5c5.8,0,10.5-4.7,10.5-10.5h0c0-5.8-4.7-10.5-10.5-10.5h-10.5ZM289.5,658c-5.8,0-10.5,4.7-10.5,10.5h0c0,5.8,4.7,10.5,10.5,10.5h10.5v-21h-10.5ZM825,679v73.5c0,5.8,4.7,10.5,10.5,10.5h0c5.8,0,10.5-4.7,10.5-10.5h0v-63c0-5.8-4.7-10.5-10.5-10.5h-10.5ZM646.5,679c-5.8,0-10.5,4.7-10.5,10.5h0c0,5.8,4.7,10.5,10.5,10.5h10.5v-21h-10.5ZM531,689.5v31.5h10.5c5.8,0,10.5-4.7,10.5-10.5h0v-21c0-5.8-4.7-10.5-10.5-10.5h0c-5.8,0-10.5,4.7-10.5,10.5ZM342,679v42h10.5c5.8,0,10.5-4.7,10.5-10.5h0v-21c0-5.8-4.7-10.5-10.5-10.5h-10.5ZM331.5,679c-5.8,0-10.5,4.7-10.5,10.5h0v21c0,5.8,4.7,10.5,10.5,10.5h10.5v-42h-10.5ZM699,710.5c0,5.8,4.7,10.5,10.5,10.5h0c5.8,0,10.5-4.7,10.5-10.5h0c0-5.8-4.7-10.5-10.5-10.5h0c-5.8,0-10.5,4.7-10.5,10.5ZM615,710.5c0,5.8,4.7,10.5,10.5,10.5h0c5.8,0,10.5-4.7,10.5-10.5h0c0-5.8-4.7-10.5-10.5-10.5h0c-5.8,0-10.5,4.7-10.5,10.5ZM573,710.5v21c0,5.8,4.7,10.5,10.5,10.5h0c5.8,0,10.5-4.7,10.5-10.5h0v-21c0-5.8-4.7-10.5-10.5-10.5h0c-5.8,0-10.5,4.7-10.5,10.5ZM510,700v63h21v-63h-21ZM457.5,700c-5.8,0-10.5,4.7-10.5,10.5h0v73.5h21v-84h-10.5ZM762,721v21h10.5c5.8,0,10.5-4.7,10.5-10.5h0c0-5.8-4.7-10.5-10.5-10.5h-10.5ZM646.5,721c-5.8,0-10.5,4.7-10.5,10.5h0v52.5h10.5c5.8,0,10.5-4.7,10.5-10.5h0v-52.5h-10.5ZM405,721v21h10.5c5.8,0,10.5-4.7,10.5-10.5h0c0-5.8-4.7-10.5-10.5-10.5h-10.5ZM394.5,721c-5.8,0-10.5,4.7-10.5,10.5h0v42c0,5.8,4.7,10.5,10.5,10.5h10.5v-63h-10.5ZM720,742v94.5c0,5.8,4.7,10.5,10.5,10.5h0c5.8,0,10.5-4.7,10.5-10.5h0v-94.5h-21ZM699,742v42h21v-42h-21ZM678,742v73.5c0,5.8,4.7,10.5,10.5,10.5h0c5.8,0,10.5-4.7,10.5-10.5h0v-73.5h-21ZM625.5,742c-5.8,0-10.5,4.7-10.5,10.5h0v94.5h21v-105h-10.5ZM552,742v21h10.5c5.8,0,10.5-4.7,10.5-10.5h0c0-5.8-4.7-10.5-10.5-10.5h-10.5ZM531,742v21h21v-21h-21ZM489,742v21h21v-21h-21ZM321,752.5c0,5.8,4.7,10.5,10.5,10.5h0c5.8,0,10.5-4.7,10.5-10.5h0c0-5.8-4.7-10.5-10.5-10.5h0c-5.8,0-10.5,4.7-10.5,10.5ZM783,773.5c0,5.8,4.7,10.5,10.5,10.5h0c5.8,0,10.5-4.7,10.5-10.5h0c0-5.8-4.7-10.5-10.5-10.5h0c-5.8,0-10.5,4.7-10.5,10.5ZM573,773.5v42c0,5.8,4.7,10.5,10.5,10.5h0c5.8,0,10.5-4.7,10.5-10.5h0v-42c0-5.8-4.7-10.5-10.5-10.5h0c-5.8,0-10.5,4.7-10.5,10.5ZM426,763v31.5c0,5.8,4.7,10.5,10.5,10.5h0c5.8,0,10.5-4.7,10.5-10.5h0v-31.5h-21ZM405,763v21h21v-21h-21ZM342,773.5c0,5.8,4.7,10.5,10.5,10.5h0c5.8,0,10.5-4.7,10.5-10.5h0c0-5.8-4.7-10.5-10.5-10.5h0c-5.8,0-10.5,4.7-10.5,10.5ZM825,794.5c0,5.8,4.7,10.5,10.5,10.5h0c5.8,0,10.5-4.7,10.5-10.5h0c0-5.8-4.7-10.5-10.5-10.5h0c-5.8,0-10.5,4.7-10.5,10.5ZM594,784v21h21v-21h-21ZM531,784v42h10.5c5.8,0,10.5-4.7,10.5-10.5h0v-21c0-5.8-4.7-10.5-10.5-10.5h-10.5ZM510,784v52.5c0,5.8,4.7,10.5,10.5,10.5h0c5.8,0,10.5-4.7,10.5-10.5h0v-52.5h-21ZM489,784v42h21v-42h-21ZM363,794.5v52.5h10.5c5.8,0,10.5-4.7,10.5-10.5h0v-42c0-5.8-4.7-10.5-10.5-10.5h0c-5.8,0-10.5,4.7-10.5,10.5ZM636,805v42h10.5c5.8,0,10.5-4.7,10.5-10.5h0v-21c0-5.8-4.7-10.5-10.5-10.5h-10.5ZM352.5,805c-5.8,0-10.5,4.7-10.5,10.5h0v21c0,5.8,4.7,10.5,10.5,10.5h10.5v-42h-10.5ZM804,836.5c0,5.8,4.7,10.5,10.5,10.5h0c5.8,0,10.5-4.7,10.5-10.5h0c0-5.8-4.7-10.5-10.5-10.5h0c-5.8,0-10.5,4.7-10.5,10.5ZM604.5,826c-5.8,0-10.5,4.7-10.5,10.5h0c0,5.8,4.7,10.5,10.5,10.5h10.5v-21h-10.5Z"/>
    </clipPath>
    <clipPath id="clippath-3">
      <path class="cls-11" d="M153,206.5v42c0,29,23.5,52.5,52.5,52.5h42c29,0,52.5-23.5,52.5-52.5v-42c0-29-23.5-52.5-52.5-52.5h-42c-29,0-52.5,23.5-52.5,52.5M205.5,175h42c17.4,0,31.5,14.1,31.5,31.5v42c0,17.4-14.1,31.5-31.5,31.5h-42c-17.4,0-31.5-14.1-31.5-31.5v-42c0-17.4,14.1-31.5,31.5-31.5Z"/>
    </clipPath>
    <clipPath id="clippath-4">
      <rect class="cls-11" x="195" y="196" width="63" height="63" rx="18" ry="18"/>
    </clipPath>
    <clipPath id="clippath-5">
      <path class="cls-11" d="M793.5,154h-42c-29,0-52.5,23.5-52.5,52.5v42c0,29,23.5,52.5,52.5,52.5h42c29,0,52.5-23.5,52.5-52.5v-42c0-29-23.5-52.5-52.5-52.5M825,206.5v42c0,17.4-14.1,31.5-31.5,31.5h-42c-17.4,0-31.5-14.1-31.5-31.5v-42c0-17.4,14.1-31.5,31.5-31.5h42c17.4,0,31.5,14.1,31.5,31.5Z"/>
    </clipPath>
    <clipPath id="clippath-6">
      <rect class="cls-11" x="741" y="196" width="63" height="63" rx="18" ry="18"/>
    </clipPath>
    <clipPath id="clippath-7">
      <path class="cls-11" d="M205.5,847h42c29,0,52.5-23.5,52.5-52.5v-42c0-29-23.5-52.5-52.5-52.5h-42c-29,0-52.5,23.5-52.5,52.5v42c0,29,23.5,52.5,52.5,52.5M174,794.5v-42c0-17.4,14.1-31.5,31.5-31.5h42c17.4,0,31.5,14.1,31.5,31.5v42c0,17.4-14.1,31.5-31.5,31.5h-42c-17.4,0-31.5-14.1-31.5-31.5Z"/>
    </clipPath>
    <clipPath id="clippath-8">
      <rect class="cls-11" x="195" y="742" width="63" height="63" rx="18" ry="18"/>
    </clipPath>
    <linearGradient id="Adsız_degrade_261" data-name="Adsız degrade 261" x1="402.1" y1="500.7" x2="598.9" y2="500.7" gradientUnits="userSpaceOnUse">
      <stop offset="0" stop-color="#e7001e"/>
      <stop offset=".3" stop-color="#e80729"/>
      <stop offset=".7" stop-color="#ec1d46"/>
      <stop offset="1" stop-color="#f02e5e"/>
    </linearGradient>
    <linearGradient id="Adsız_degrade_739" data-name="Adsız degrade 739" x1="431.7" y1="480.7" x2="570" y2="480.7" gradientUnits="userSpaceOnUse">
      <stop offset="0" stop-color="#0600e7"/>
      <stop offset=".2" stop-color="#0900db"/>
      <stop offset=".5" stop-color="#1200be"/>
      <stop offset="1" stop-color="#21008e"/>
      <stop offset="1" stop-color="#23008b"/>
    </linearGradient>
    <linearGradient id="Adsız_degrade_739-2" data-name="Adsız degrade 739" x1="434.2" y1="520.6" x2="572.6" y2="520.6" xlink:href="#Adsız_degrade_739"/>
    <linearGradient id="Adsız_degrade_786" data-name="Adsız degrade 786" x1="449" y1="520" x2="569.5" y2="520" gradientTransform="translate(508.8 -396.8) rotate(48.8) scale(1.2 1.1) skewX(7.5)" gradientUnits="userSpaceOnUse">
      <stop offset="0" stop-color="#1e0000"/>
      <stop offset="0" stop-color="#16050b"/>
      <stop offset="0" stop-color="#021528"/>
      <stop offset="0" stop-color="#00172c"/>
    </linearGradient>
    <linearGradient id="Adsız_degrade_806" data-name="Adsız degrade 806" x1="438.3" y1="496.6" x2="562.9" y2="504.9" gradientUnits="userSpaceOnUse">
      <stop offset="0" stop-color="#1e0000"/>
      <stop offset="0" stop-color="#290102"/>
      <stop offset="0" stop-color="#460407"/>
      <stop offset="0" stop-color="#760911"/>
      <stop offset="0" stop-color="#b80f1e"/>
      <stop offset="0" stop-color="#ff172c"/>
      <stop offset="1" stop-color="#e3172c"/>
    </linearGradient>
    <linearGradient id="Adsız_degrade_786-2" data-name="Adsız degrade 786" x1="305.2" y1="653" x2="425.6" y2="653" gradientTransform="translate(1319.3 716.9) rotate(136.8) scale(1.1) skewX(3.5)" xlink:href="#Adsız_degrade_786"/>
    <linearGradient id="Adsız_degrade_806-2" data-name="Adsız degrade 806" x1="502.3" y1="436.5" x2="498.4" y2="562.6" xlink:href="#Adsız_degrade_806"/>
  </defs>
  <!-- Generator: Adobe Illustrator 28.6.0, SVG Export Plug-In . SVG Version: 1.2.0 Build 594)  -->
  <g>
    <g id="katman_1">
      <rect class="cls-9" x="40" y="40" width="920" height="920"/>
      <path class="cls-14" d="M960,0H40C17.9,0,0,17.9,0,40v1220c0,22.1,17.9,40,40,40h920c22.1,0,40-17.9,40-40V40c0-22.1-17.9-40-40-40ZM40,960V40h920v920H40Z"/>
      <text class="cls-10" transform="translate(142.5 1130)"><tspan x="0" y="0">Boykot İçin Okut</tspan></text>
      <g class="cls-13">
        <rect class="cls-24" x="112" y="112" width="776" height="777"/>
      </g>
      <g class="cls-22">
        <rect class="cls-18" x="153" y="154" width="693" height="693"/>
      </g>
      <g class="cls-19">
        <rect class="cls-1" x="153" y="154" width="147" height="147"/>
      </g>
      <g class="cls-5">
        <rect class="cls-8" x="195" y="196" width="63" height="63"/>
      </g>
      <g class="cls-16">
        <rect class="cls-1" x="699" y="154" width="147" height="147"/>
      </g>
      <g class="cls-2">
        <rect class="cls-8" x="741" y="196" width="63" height="63"/>
      </g>
      <g class="cls-3">
        <rect class="cls-1" x="153" y="700" width="147" height="147"/>
      </g>
      <g class="cls-17">
        <rect class="cls-8" x="195" y="742" width="63" height="63"/>
      </g>
      <g>
        <g>
          <circle class="cls-9" cx="500.5" cy="500.7" r="98.4"/>
          <path class="cls-20" d="M500.5,414.3c47.6,0,86.4,38.8,86.4,86.4s-38.8,86.4-86.4,86.4-86.4-38.8-86.4-86.4,38.8-86.4,86.4-86.4M500.5,402.3c-54.3,0-98.4,44.1-98.4,98.4s44.1,98.4,98.4,98.4,98.4-44.1,98.4-98.4-44.1-98.4-98.4-98.4h0Z"/>
        </g>
        <path class="cls-4" d="M500.9,436.8l55.3,95.8h-110.7l55.3-95.8M500.9,420.8l-69.2,119.8h138.4l-69.2-119.8h0Z"/>
        <path class="cls-23" d="M558.7,468.7l-55.3,95.8-55.3-95.8h110.7M572.6,460.7h-138.4l69.2,119.8,69.2-119.8h0Z"/>
        <g>
          <rect class="cls-21" x="416.7" y="489.9" width="167.7" height="21.7" rx="2.4" ry="2.4" transform="translate(-207.5 500.6) rotate(-45)"/>
          <path class="cls-7" d="M552.2,440.9l8.3,8.3-111.5,111.5-8.3-8.3,111.5-111.5M552.2,434.8c-.6,0-1.2.2-1.7.7l-115.1,115.1c-.9.9-.9,2.5,0,3.4l11.9,11.9c.5.5,1.1.7,1.7.7s1.2-.2,1.7-.7l115.1-115.1c.9-.9.9-2.5,0-3.4l-11.9-11.9c-.5-.5-1.1-.7-1.7-.7h0Z"/>
        </g>
        <g>
          <rect class="cls-15" x="490.4" y="416.6" width="20" height="165.9" rx="2.4" ry="2.4" transform="translate(-206.7 500.1) rotate(-45)"/>
          <path class="cls-6" d="M448.8,440.9l110.2,110.2-7.1,7.1-110.2-110.2,7.1-7.1M448.8,434.8c-.6,0-1.2.2-1.7.7l-10.7,10.7c-.9.9-.9,2.5,0,3.4l113.9,113.9c.5.5,1.1.7,1.7.7s1.2-.2,1.7-.7l10.7-10.7c.9-.9.9-2.5,0-3.4l-113.9-113.9c-.5-.5-1.1-.7-1.7-.7h0Z"/>
        </g>
      </g>
    </g>
  </g>
</svg>